<svg width="24" height="24" viewBox="0 0 24 24" fill="none" xmlns="http://www.w3.org/2000/svg">
<path fill-rule="evenodd" clip-rule="evenodd" d="M22 12C22 17.5228 17.5228 22 12 22C6.47715 22 2 17.5228 2 12C2 6.47715 6.47715 2 12 2C17.5228 2 22 6.47715 22 12ZM24 12C24 18.6274 18.6274 24 12 24C5.37258 24 0 18.6274 0 12C0 5.37258 5.37258 0 12 0C18.6274 0 24 5.37258 24 12ZM8.95386 7.30435L12.2531 10.6036L15.5524 7.30436L17.202 8.95397L13.9027 12.2532L17.2019 15.5524L15.5523 17.202L12.2531 13.9029L8.95394 17.202L7.30432 15.5524L10.6035 12.2532L7.30424 8.95397L8.95386 7.30435Z" fill="#999999"/>
</svg>
