<svg width="60" height="60" fill="none" xmlns="http://www.w3.org/2000/svg"><path fill-rule="evenodd" clip-rule="evenodd" d="M60 30a30 30 0 1 0-60 0 30 30 0 0 0 60 0ZM13.68 41.28c-.43-1.1-.72-2.34-.8-4.18-.09-1.83-.1-2.42-.1-7.1s.01-5.27.1-7.1c.08-1.84.37-3.09.8-4.18a8.44 8.44 0 0 1 1.98-3.05 8.45 8.45 0 0 1 3.06-2c1.1-.42 2.34-.7 4.18-.8 1.83-.08 2.42-.1 7.1-.1s5.27.02 7.1.1c1.84.1 3.09.38 4.18.8a8.44 8.44 0 0 1 3.05 2c.88.86 1.56 1.9 2 3.05.42 1.1.7 2.34.8 4.18.08 1.83.1 2.42.1 7.1s-.02 5.27-.1 7.1a12.64 12.64 0 0 1-.8 4.18 8.44 8.44 0 0 1-2 3.05 8.44 8.44 0 0 1-3.05 2c-1.1.42-2.34.7-4.18.8-1.84.08-2.42.1-7.1.1s-5.27-.02-7.1-.1a12.65 12.65 0 0 1-4.18-.8 8.8 8.8 0 0 1-5.04-5.05Zm2.9-21.44c.27-.75.7-1.42 1.28-1.98a5.33 5.33 0 0 1 1.98-1.29c.6-.23 1.52-.52 3.2-.6 1.82-.07 2.36-.1 6.96-.1s5.14.02 6.96.1c1.68.08 2.6.37 3.2.6.75.28 1.43.72 1.98 1.29a5.34 5.34 0 0 1 1.29 1.98c.24.6.52 1.52.6 3.2.08 1.82.1 2.36.1 6.96s-.02 5.14-.1 6.96a9.53 9.53 0 0 1-.6 3.2 5.34 5.34 0 0 1-1.29 1.98 5.33 5.33 0 0 1-1.98 1.29c-.6.24-1.52.52-3.2.6-1.82.08-2.36.1-6.96.1s-5.14-.02-6.96-.1a9.52 9.52 0 0 1-3.2-.6 5.7 5.7 0 0 1-3.27-3.27 9.54 9.54 0 0 1-.6-3.2c-.08-1.82-.1-2.36-.1-6.96s.02-5.14.1-6.96c.08-1.68.36-2.6.6-3.2Zm13.42 19a8.85 8.85 0 1 0 0-17.69 8.85 8.85 0 0 0 0 17.7Zm-9.2-15.97a2.07 2.07 0 1 0 0-4.13 2.07 2.07 0 0 0 0 4.13ZM24.26 30a5.74 5.74 0 1 0 11.48 0 5.74 5.74 0 0 0-11.48 0Z" fill="#7C7C7C"/></svg>